<svg width="21" height="16" viewBox="0 0 21 16" fill="none" xmlns="http://www.w3.org/2000/svg">
<path d="M20.6326 1.89404C19.8941 2.22064 19.1108 2.43503 18.3087 2.53006C19.1442 2.03017 19.7856 1.23857 20.0877 0.295396C19.2935 0.765896 18.4246 1.09739 17.5185 1.27556C16.7804 0.490584 15.729 0 14.5652 0C12.3307 0 10.5191 1.80852 10.5191 4.03911C10.5191 4.35573 10.5549 4.66397 10.6239 4.95967C7.2613 4.79117 4.28005 3.18314 2.28446 0.739375C1.93626 1.33594 1.73674 2.02986 1.73674 2.77C1.73674 4.17139 2.45109 5.40765 3.53666 6.13203C2.89415 6.11194 2.26578 5.93869 1.704 5.62676C1.70377 5.64368 1.70377 5.66059 1.70377 5.67759C1.70377 7.63462 3.09841 9.26718 4.94925 9.63825C4.35345 9.80002 3.7285 9.82369 3.12214 9.70747C3.63696 11.3122 5.13121 12.4799 6.90162 12.5126C5.51692 13.5959 3.77231 14.2417 1.87679 14.2417C1.55016 14.2417 1.22816 14.2225 0.911621 14.1852C2.70214 15.3313 4.82885 16 7.1137 16C14.5558 16 18.6253 9.84513 18.6253 4.50754C18.6253 4.33235 18.6215 4.15816 18.6136 3.98497C19.4057 3.41331 20.0894 2.70526 20.6326 1.89404Z" fill="#CDCDCD"/>
</svg>
